<?xml version="1.0" encoding="utf-8"?>
<!-- Generator: Adobe Illustrator 27.0.0, SVG Export Plug-In . SVG Version: 6.00 Build 0)  -->
<svg version="1.1" id="Layer_1" xmlns="http://www.w3.org/2000/svg" xmlns:xlink="http://www.w3.org/1999/xlink" x="0px" y="0px"
	 viewBox="0 0 2000 2000" style="enable-background:new 0 0 2000 2000;" xml:space="preserve">
<style type="text/css">
	.st0{fill-rule:evenodd;clip-rule:evenodd;fill:#A00000;}
	.st1{fill-rule:evenodd;clip-rule:evenodd;}
</style>
<path class="st0" d="M1070.6,702.5L922,703.7c0,0,12.1,27.6,23.6,50.1c11.5,22.5,14.4,31.1,16.7,48.9c2.3,17.9,17.9,35.8,20.2,54.9
	c1.8,14.7-1,25.3,0.1,37.1l72.6-1.5c-1.9-10.7-3.2-18.3-6.6-26.4c-7.1-17.1-20.1-17.1-20.1-31.2c0-14.1,5-18.1,3-37.3
	c-2-19.1,14.5-63.2,14.5-63.2l-27.6,12.7l17.9-19.6L1070.6,702.5L1070.6,702.5z"/>
<path class="st0" d="M983.4,900.1c0.4,1.8,0.8,3.6,1.4,5.5c5.3,16.8,12.9,51,19.8,62.4c6.9,11.4,11.4,19.8,9.9,36.6
	c-0.7,8.2,3.8,26.6,9.6,46l25-14.6c1-9.7,0.1-19.5-2-29c-0.9-4.2-2.1-8.3-3.3-12.4c-1-3.4-2.4-7.3-2.2-10.9l0.1-1.9l0.6-1.8
	c2.6-7.1,6.5-16.5,11.1-25.2l-2.6-0.2L983.4,900.1L983.4,900.1z"/>
<path class="st0" d="M832,971l-29.8,35.3l-0.1,0.4l21.9-0.8l15.1-14.7L832,971L832,971z"/>
<path class="st0" d="M1032.7,1077.6c3.5,10.6,6.9,20.1,9.2,26.8c8.4,23.6,55.6,191.9,63.2,221.6c0,0,13.2-16.6,13.7-26.7
	c0.5-10,4-17,11-22c7-5,16.5-49.1,22.5-77.6c6-28.5,0-34.6,8.5-47.6c8.1-12.4,33.1-70,42.9-98.4c-2.5,2-5.1,3.8-7.5,5.4l-10.5,6.8
	c-3.2,3.3-6.3,5.8-8.8,6.8c-0.9,0.4-2,0.7-3.2,0.9l-9.6,6.2l2-5.1c-2.1,0.2-4.1,0.3-5.7,0.5c-8.3,0.7-16.6,1.2-24.9,1.6
	c-4.5,0.2-9,0.4-13.6,0.6c-5.2,14.3-9.7,27.2-12.1,37.3c-6,26.2-14.1,48.3-14.1,48.3s-12.8-44.2-22.2-86.9c-1.6,0.2-3.1,0.4-4.3,0.8
	c-6.4,1.8-20,1.2-26.9,1C1039.3,1077.8,1036,1077.7,1032.7,1077.6L1032.7,1077.6z"/>
<path class="st0" d="M1222.7,977.9c2.7-13,4.8-23.8,5.7-29c2.6-14.6,9.3-17.9-0.7-36.4c0,0,1-4.5,2.6-12l-14.6,13.3
	c-6.2,5.6-11,11.1-15.2,18.2c-2.5,4.3-4.7,8.2-7.2,12.1C1202,951.9,1217.2,966.4,1222.7,977.9L1222.7,977.9z"/>
<path class="st0" d="M1232.1,892.6c7.3-32.6,22.4-97.4,34.5-132.5c16.6-48.2,36.8-123.5,36.8-123.5s-33.5,57.5-43.4,76.7
	c-6,11.6-41.9,101.6-71.8,179.4L1232.1,892.6z"/>
<path class="st0" d="M1151.9,990.7c-2.1,6.1-3.6,10.9-4.5,14.2c-2.4,8.8-5.4,18.1-8.7,27.5l1.1,0.1c11.4,1.6,16.4-1.3,22.5-10.6
	c4-5.9,2.1-23.6-2.3-29.6C1158.2,991.5,1155.4,991,1151.9,990.7L1151.9,990.7z"/>
<path class="st0" d="M696.6,702.2l209.9-2c0,0-36.4,36.4-41.1,53.6c-4.3,15.9-3.6,106.1-4.1,139.9l-80.2-1.7
	c-0.1-23.7,2.7-78.9,5.4-90.6c3-12.9,9.1-26.7,0-32.7c-9.1-6.1-9.1-30.5-17.5-32.7C760.7,733.6,696.6,702.2,696.6,702.2L696.6,702.2
	z"/>
<path class="st0" d="M864.1,1064.9c-2.5,17-5.8,31.2-12,42.7c-10.7,19.8-8.4,119.6-7.6,145.5c0.8,25.9-10.7,110.4-10.7,110.4
	s-8.4-32.7-10.7-72.3c-2.3-39.6-9.1-146.2-16-177.4c-2.8-12.7-7.1-41.8-11.1-73.2l43.9,1.1l11.5-12.1L864.1,1064.9L864.1,1064.9z"/>
<path class="st0" d="M786,945.7c-0.3-5.5-0.4-9.5-0.2-11.8c0.3-3,0.3-5.5,0.2-7.7c2.9,1.8,5.8,3.6,8.7,5.3c0,0.1-0.1,0.1-0.1,0.2
	c-2,3.3-4.1,6.6-6.1,10C787.7,943,786.9,944.4,786,945.7L786,945.7z"/>
<path class="st1" d="M175.3,900.3h264.3c0,0-26.2,13.8-19.6,25.9c6.6,12,16.3,47.9,16.3,47.9s-6.6,13.5-7.5,25.6
	s-7.2,55.1-42.4,77.7c-40.1,25.7-167.4,25.9-202.9,25.9c0,0,15.1-21.1,35.2-22.6c20.2-1.5,22.9-0.3,22.9-0.3s-0.4-7.5-2.4-18.3
	c-2-10.9-0.4-42.6-0.4-42.6l7.9-7.1l-7.3-2.6c0,0,0.2-38.8,0.2-42.2c0-3.4,17-21.8,17-21.8s-10.1,3-17.8-1
	C231.1,940.8,175.3,900.3,175.3,900.3L175.3,900.3z M297.4,948.3l-27.7-29.2c0,0,73.8,2.1,90,5.4c16.3,3.3,19.9,4.5,19.9,4.5
	s-15.7,8.1-11.4,13.5c4.2,5.4,12,14.8,12,46.7c0,31.9-16.9,70.4-35.2,77.1c-18.4,6.6-64.4,4.2-64.4,4.2c-1.5-16.1,9.4,1.2-2.3-43.3
	c0,0,7.5-10.5,15.5-13.4l-13.7-13.7l-3.6-54L297.4,948.3L297.4,948.3z M304.5,938.1c0.2-1.6,0.3-3.4,0.5-5.4l-5.9-0.3L304.5,938.1z"
	/>
<path class="st1" d="M529.1,906.2l87.9-2.4l-24.4,17.5c0,0,4.2,12.6,2.7,16.3c-1.5,3.6-3,70.2-2.4,72.9c0.9,4.2-5.1,39.3,16.9,51.2
	c7.2,3.9,9.9,6.9,9.9,6.9s-27.1,2.7-34.3-0.9c-7.2-3.6-22.6,0.6-31.3,0.9c-8.7,0.3-25.3,0.6-25.3,0.6s18.1-9.3,20.2-25
	c2.1-15.7,5.4-23.5,6.9-28.3c1.5-4.8,2.7-43.7,0.9-60.2c-1.8-16.6-3.9-15.1-2.1-21.7c1.8-6.6,2.7-8.7,2.7-8.7L529.1,906.2
	L529.1,906.2z"/>
<path class="st1" d="M773.8,904.1l105.8,2.3c0,0-14.7,12.8-14.7,21.5c0,8.7,21.1,43.5,21.1,43.5l-2.3,7.8l8,4
	c0,0,16.9,51.8,21.1,60.8c4.2,9,30.1,20.8,30.1,20.8H877l-20.8-58.1l-21.4,22.6l-47.6-1.2c0,0-11.4,12.6-14.8,21.4
	c-3.3,8.7-6.3,33.7-12.9,41.3c-6.6,7.5-5.7,19-6.6,35.5c-0.9,16.6-0.9,47.9-0.9,47.9s-18.7-26.8-21.1-47
	c-2.4-20.2,0.3-23.2-0.6-40.3c-0.9-17.2-7.5-35.2-0.3-39.1c7.2-3.9,21.7,1.5,24.1-9c2.4-10.5-2.4-23.8-2.4-23.8s39.4-53.6,47.3-66.8
	c7.8-13.2,14.2-20.2,6.9-24.1C798.7,919.9,773.8,904.1,773.8,904.1L773.8,904.1z M836.4,946.9l17,47.6l-24.1,23.5l-41.3,1.5
	l2.7-18.4L836.4,946.9z"/>
<path class="st1" d="M1010.5,906.3l88.9-1.8l2,5.2l2.8-5.8l17.6,0.7l2.6,2.8l7.2-2.5l75.9-0.1c-19.1,17.4-18,25.8-28.9,38.8
	c-4,4.8-23.5,20.2-23.5,20.2c11.4,2.8,23.2,0.9,29.7-10.9c0,0,24.8,21.8,27.7,32.3c2.9,10.5,0.5,41.6-5.5,49
	c-6,7.3-17.3,14.7-17.3,14.7l5-12.6c0,0-17.8,23.3-22.3,25.1c-4.5,1.8-68.9,5.5-78.1,3.4c-9.2-2.1-22.3-1.3-28,0.3
	c-5.8,1.6-42.7,0-42.7,0l36.7-21.5c5.5-29.5-6.7-55.2-6.5-59.5c0,0,10.5-29.1,21.2-39.6l-19.4-1.8L1010.5,906.3L1010.5,906.3z
	 M1158.5,921c0,0-8.9,7.9-9.2,15.5c-0.3,7.6-35.1,42.7-35.1,42.7s46.4-4.5,54.2,4.2c7.9,8.6,11.8,33.5,4,45.3
	c-7.8,11.7-16.6,18.4-34.3,16c-17.8-2.4-26.5-2.7-26.5-2.7l-15.7,6.6l0.6-35.8l11.7-11.4l-7.5-5.7l0.6-44l9.9-6.9L1083,922
	L1158.5,921L1158.5,921z"/>
<path class="st1" d="M1331.7,904l85.2-0.9l-16,16.5l0.5,30.7l5,7.8l-4.6,9.6l-1.4,65.5l-7.3,14.7l43.1-6.9l37.6,6l-0.9-53.6
	l8.7,30.7l38.5,44c0,0-44.9,0.9-52.2-0.9c-7.3-1.8-22.4-7.3-22.4-7.3l-11.5,5.5l-115,1.8l44.9-33.9l-1.9-34.5l-6-9.9l7.5-14.2
	l0.9-41.9l3.6-8.7L1331.7,904L1331.7,904z"/>
<path class="st1" d="M1823.1,901.6c0,0-78.1-3.6-105.2-3.6c-27.1,0-94,25.1-111.9,63.3c-17.9,38.2,7.6,94.8,37.4,114.3
	c29.9,19.5,74.5,24.7,100.8,16.7c26.3-8,64.9-49.8,69.3-62.9c6.6-19.8,4-40.8,11.2-58.6c-15.6-2.9-21.3-32.7-64.5-35.5
	c0,0,5.2-8,17.9-7.6C1790.8,928.3,1823.1,901.6,1823.1,901.6L1823.1,901.6z M1766.5,912.3c-6-0.8-61.4-2.8-74.1,2
	c-12.7,4.8-36.7,28.3-43,53c-6.4,24.7-6.8,61,1.6,82.1c8.4,21.1,43.4,36.7,67.7,30.7c24.3-6,28.7-6.4,41-35.1
	c12.3-28.7,2.4-48.2,2.4-48.2s11.2-6.4,1.6-21.5c-9.6-15.1-22.7-37.8-47.4-39.8C1716.3,935.4,1757.4,923.1,1766.5,912.3
	L1766.5,912.3z"/>
</svg>
